<?xml version="1.0" encoding="UTF-8"?>
<svg version="1.1" xmlns="http://www.w3.org/2000/svg" width="1024" height="1024">
<path d="M0 0 C0.91915192 0.00465271 1.83830383 0.00930542 2.78530884 0.01409912 C16.42373001 0.0949251 29.81633169 0.4442969 43.1875 3.375 C44.56180176 3.67301514 44.56180176 3.67301514 45.96386719 3.97705078 C73.06196857 10.0611351 99.75065226 20.77564607 122.1875 37.375 C122.70957031 37.75865723 123.23164062 38.14231445 123.76953125 38.53759766 C130.4933033 43.50366232 136.87362641 48.72375212 143.01953125 54.3984375 C144.90184468 56.1145647 146.82181566 57.72552088 148.8125 59.3125 C149.988125 60.3334375 149.988125 60.3334375 151.1875 61.375 C151.1875 62.035 151.1875 62.695 151.1875 63.375 C151.8475 63.375 152.5075 63.375 153.1875 63.375 C153.1875 64.035 153.1875 64.695 153.1875 65.375 C153.8475 65.375 154.5075 65.375 155.1875 65.375 C157.76970423 67.79035411 159.92862292 70.66128981 162.1875 73.375 C162.65655762 73.9225293 163.12561523 74.47005859 163.60888672 75.03417969 C172.31368954 85.19574958 179.58733447 95.74322679 186.1875 107.375 C186.79851562 108.43654297 186.79851562 108.43654297 187.421875 109.51953125 C213.68887389 155.4867793 217.4186601 211.72403721 204.1875 262.375 C196.83973955 288.84049628 183.70192317 312.86888247 166.9375 334.5 C160.22398213 343.16772857 154.09863011 352.14488932 148.1875 361.375 C147.7857959 361.9952002 147.3840918 362.61540039 146.97021484 363.25439453 C135.00249397 381.85101918 125.95398896 402.17421179 120.26171875 423.51953125 C120.09074173 424.15727478 119.91976471 424.79501831 119.74360657 425.4520874 C118.88909127 428.64601342 118.05521715 431.84156225 117.25317383 435.04931641 C115.25917997 442.68683557 112.64619034 448.86125875 108.1875 455.375 C107.61 456.2825 107.0325 457.19 106.4375 458.125 C95.48452819 469.07797181 81.79671208 469.47390223 67.24009705 469.52163696 C65.83145138 469.52128758 64.42280575 469.52082613 63.01416016 469.52026367 C61.50508034 469.52326146 59.99600129 469.5266654 58.48692322 469.53044128 C54.41452134 469.5392211 50.34214052 469.54161681 46.26973009 469.54225707 C43.71907747 469.54297084 41.16843009 469.5451113 38.61777878 469.54775429 C29.70156264 469.55698684 20.78536139 469.56109168 11.86914062 469.56030273 C3.58602461 469.55970207 -4.69702625 469.57025704 -12.98012578 469.5860464 C-20.11676473 469.59916081 -27.25338247 469.60448502 -34.39003336 469.60384732 C-38.64138692 469.60359354 -42.89268246 469.60637833 -47.1440239 469.61702538 C-51.1446914 469.62677268 -55.1452462 469.62674055 -59.14591789 469.61950874 C-60.60508961 469.61847119 -62.0642686 469.62077584 -63.52342796 469.6268692 C-77.25907531 469.6804657 -91.40394072 469.50964983 -101.8125 459.375 C-109.48596026 449.79820103 -112.20364013 438.36720483 -115.1875 426.6875 C-117.83633024 416.64584539 -120.68386912 406.90932825 -124.8125 397.375 C-125.12912598 396.64297363 -125.44575195 395.91094727 -125.77197266 395.15673828 C-134.31589695 375.7210339 -145.61564094 358.20224919 -158.609375 341.47265625 C-196.08097054 293.16024985 -212.5975507 237.75367082 -204.97094727 176.54882812 C-200.86112243 147.75395091 -190.17671976 121.43420441 -175.51953125 96.46484375 C-173.65130848 93.6715701 -173.65130848 93.6715701 -173.8125 91.375 C-172.8225 91.045 -171.8325 90.715 -170.8125 90.375 C-169.20649556 88.44779467 -167.72048669 86.52594006 -166.25 84.5 C-162.07076812 78.88766584 -157.63346229 73.72520345 -152.84375 68.6171875 C-150.68875039 66.34920508 -150.68875039 66.34920508 -148.8125 63.375 C-148.1525 63.375 -147.4925 63.375 -146.8125 63.375 C-146.55082031 62.77816406 -146.28914063 62.18132812 -146.01953125 61.56640625 C-144.73382852 59.23216926 -143.53352904 58.0150907 -141.5 56.3125 C-140.78199219 55.70792969 -140.06398438 55.10335937 -139.32421875 54.48046875 C-138.49535156 53.78566406 -137.66648437 53.09085937 -136.8125 52.375 C-135.87019531 51.54613281 -134.92789063 50.71726562 -133.95703125 49.86328125 C-110.05185855 28.91873648 -81.75146165 14.18753529 -51.0625 6 C-50.21373291 5.77328613 -49.36496582 5.54657227 -48.49047852 5.31298828 C-32.38496038 1.29303644 -16.56013425 -0.15012084 0 0 Z M-78.8125 119.375 C-87.75636983 130.61216979 -85.96267852 146.16533746 -85.95776367 159.76489258 C-85.96076599 161.14150074 -85.96417092 162.51810808 -85.96794128 163.89471436 C-85.97666839 167.58652524 -85.97911433 171.27831286 -85.97975707 174.97013307 C-85.9804731 177.28359032 -85.98261757 179.59704185 -85.98525429 181.91049767 C-85.99446446 189.99982447 -85.99859391 198.08913492 -85.99780273 206.1784668 C-85.99720045 213.69260619 -86.00779293 221.20667415 -86.0235464 228.72079545 C-86.03664516 235.20184756 -86.04198578 241.68287633 -86.04134732 248.16394156 C-86.04109339 252.02222612 -86.04388802 255.88044679 -86.05452538 259.73871803 C-86.06424801 263.36269692 -86.06425721 266.98655124 -86.05700874 270.61053467 C-86.05547558 272.56126005 -86.06377695 274.51198555 -86.07244873 276.46269226 C-86.03324286 287.47846035 -85.0123499 295.47246768 -77.5 304 C-71.79927644 309.03784873 -67.40789444 310.77886982 -59.94921875 311.58984375 C-50.36900702 310.93366486 -42.64667247 306.33054857 -34.5625 301.5 C-32.83781116 300.48648763 -31.11312225 299.47297536 -29.38842773 298.45947266 C-27.64521539 297.4323921 -25.90513607 296.4002029 -24.16601562 295.36621094 C-21.06987219 293.52781942 -17.96654463 291.70248669 -14.859375 289.8828125 C-5.32502086 284.28951237 4.15486645 278.61352144 13.55664062 272.79980469 C14.24177734 272.37731445 14.92691406 271.95482422 15.6328125 271.51953125 C16.22594238 271.15190674 16.81907227 270.78428223 17.43017578 270.40551758 C19.31061979 269.30280097 21.23745073 268.3490058 23.1875 267.375 C27.10573986 265.18515363 30.98754471 262.93145759 34.875 260.6875 C35.44496704 260.35885956 36.01493408 260.03021912 36.60217285 259.69161987 C46.33141057 254.07806432 55.98479396 248.34677814 65.59204102 242.52636719 C70.52468196 239.54341644 75.47108795 236.6365852 80.54296875 233.89746094 C88.29247434 229.69339692 94.40410473 225.0047963 97.1875 216.375 C98.05096491 209.35821145 98.09072278 202.57805171 94.02685547 196.5690918 C87.88827604 189.24663184 78.32873036 184.48943195 70.125 179.8125 C69.09987305 179.22098145 68.07474609 178.62946289 67.01855469 178.02001953 C63.74489581 176.13243753 60.46648192 174.25331729 57.1875 172.375 C52.76933323 169.8359358 48.35308011 167.29355949 43.9375 164.75 C42.84083008 164.11876221 41.74416016 163.48752441 40.61425781 162.8371582 C33.36490951 158.65605051 26.16948375 154.39526739 19.00585938 150.06933594 C8.6127109 143.80275679 -1.87217666 137.69194258 -12.35142517 131.57090759 C-16.47011549 129.16390651 -20.58046189 126.74323845 -24.6875 124.31640625 C-25.76483398 123.68202637 -26.84216797 123.04764648 -27.95214844 122.39404297 C-29.95756937 121.21314283 -31.96098438 120.02882631 -33.96191406 118.84033203 C-50.13224611 109.34379039 -63.80957525 105.01637264 -78.8125 119.375 Z " fill="#F6A649" transform="translate(509.8125,276.625)"/>
<path d="M0 0 C0.75590278 -0.00438225 1.51180556 -0.00876451 2.29061449 -0.01327956 C4.82528648 -0.02664133 7.35992373 -0.03284054 9.8946228 -0.03897095 C11.71147823 -0.04687404 13.5283321 -0.05514312 15.34518433 -0.06375122 C21.31395981 -0.08994933 27.28274223 -0.10527755 33.2515564 -0.11953735 C35.30802795 -0.12489811 37.36449945 -0.13027562 39.42097092 -0.13566971 C47.97716222 -0.15729597 56.53335166 -0.17603157 65.08956337 -0.1872921 C77.34195168 -0.2035243 89.59402254 -0.23668745 101.84629118 -0.29369295 C110.46641435 -0.33242852 119.08645273 -0.35192913 127.70666063 -0.35721266 C132.85242239 -0.36086139 137.99784538 -0.37283182 143.14351273 -0.4053154 C147.98797212 -0.43545927 152.83188887 -0.44168531 157.67642212 -0.42993164 C159.44928386 -0.42971143 161.22217126 -0.43797291 162.99494553 -0.45558548 C172.47349741 -0.54458899 180.41268971 -0.40592987 188.5249939 5.15390015 C189.9171814 6.05108765 189.9171814 6.05108765 191.3374939 6.96640015 C196.76234063 12.39124688 199.60322849 18.18462033 199.8374939 25.84140015 C199.72862841 33.24425343 197.19134771 38.7133144 192.0874939 44.02890015 C182.04711449 53.22019884 170.25523373 52.44657173 157.42977905 52.41268921 C155.70247755 52.41540267 153.9751772 52.4189656 152.24787903 52.42330933 C147.5763057 52.43239467 142.90482113 52.42890465 138.23324633 52.42255116 C133.33101197 52.41746954 128.42878496 52.42218875 123.52655029 52.42532349 C115.29359582 52.42895753 107.06067728 52.4241795 98.82772827 52.41464233 C89.32957946 52.40376611 79.83151657 52.40727959 70.33336985 52.41829515 C62.15982825 52.42739269 53.98631242 52.42864104 45.81276739 52.42341781 C40.93936912 52.42031072 36.06601114 52.41985378 31.19261551 52.42649078 C26.60756759 52.43229932 22.0226296 52.42820358 17.43759346 52.41670227 C15.76192341 52.41407404 14.086244 52.41478907 12.41057777 52.4192276 C-13.59544384 52.48172262 -13.59544384 52.48172262 -22.4750061 44.15390015 C-27.73743771 37.82790342 -29.98147152 31.37793388 -29.4750061 23.15390015 C-28.34283842 16.55314891 -25.23047446 10.85812423 -20.4750061 6.15390015 C-13.73983112 1.44161626 -8.14065268 0.00574563 0 0 Z " fill="#F5A649" transform="translate(426.4750061035156,774.8460998535156)"/>
<path d="M0 0 C1.78951836 -0.01062721 1.78951836 -0.01062721 3.6151886 -0.02146912 C4.91559082 -0.0189917 6.21599304 -0.01651428 7.55580139 -0.01396179 C8.94580356 -0.0183113 10.33580334 -0.02349524 11.72579956 -0.02944946 C15.49440828 -0.04282484 19.26291662 -0.04341979 23.03154445 -0.04088616 C26.18014886 -0.0398155 29.32873305 -0.04470224 32.47733313 -0.04949158 C39.90649944 -0.06058163 47.33561519 -0.06102695 54.76478577 -0.05497742 C62.42368837 -0.04893663 70.08240732 -0.06125238 77.74127859 -0.08254749 C84.32232233 -0.10017153 90.90330764 -0.1061636 97.48437411 -0.10290974 C101.4125862 -0.10109808 105.34066727 -0.10372134 109.26885796 -0.11762428 C112.96335173 -0.13021121 116.65755943 -0.12825055 120.35204887 -0.11521339 C122.34995648 -0.11172509 124.34787287 -0.1230191 126.3457489 -0.13478088 C128.13949699 -0.12425941 128.13949699 -0.12425941 129.96948242 -0.11352539 C131.0046144 -0.11369313 132.03974638 -0.11386087 133.10624599 -0.1140337 C136.62513458 0.33417817 139.02190293 1.4328214 142.04823303 3.26069641 C144.91731873 8.37515352 144.24477083 13.71595589 143.04823303 19.26069641 C136.07358086 40.93710503 120.14027495 56.75450006 100.54432678 67.46772766 C88.90328993 73.43782365 77.55118415 75.66859868 64.54823303 75.69819641 C63.40781555 75.7013385 62.26739807 75.70448059 61.09242249 75.7077179 C51.30868477 75.57042407 43.16698933 73.55989056 34.04823303 70.26069641 C33.13686584 70.10471985 32.22549866 69.94874329 31.28651428 69.78804016 C28.61068719 69.1576097 27.86348859 68.27336703 26.04823303 66.26069641 C24.54394584 65.19527466 23.02102228 64.15593678 21.48573303 63.13569641 C5.74660982 52.20066604 -9.65325665 35.82102562 -13.52207947 16.39741516 C-14.21707464 10.93357018 -14.46815124 6.83199596 -10.95176697 2.26069641 C-7.22185856 0.37339934 -4.14963449 0.00823254 0 0 Z " fill="#F5A548" transform="translate(446.95176696777344,850.7393035888672)"/>
<path d="M0 0 C1.08956497 -0.00525696 1.08956497 -0.00525696 2.20114136 -0.01062012 C4.57706566 -0.0193459 6.9526865 -0.01361975 9.32861328 -0.00683594 C10.99716244 -0.00818551 12.66571121 -0.01012848 14.33425903 -0.01263428 C17.82248701 -0.01557341 21.31061216 -0.01132811 24.79882812 -0.00195312 C29.24583596 0.00942289 33.69260184 0.00288597 38.13960075 -0.00909805 C41.58336166 -0.01636465 45.0270663 -0.0140065 48.47082901 -0.00884247 C50.10930536 -0.00751829 51.747787 -0.00910998 53.38625717 -0.01380157 C67.1674261 -0.04460184 78.51767601 0.09521122 89.06298828 9.92675781 C94.95838236 16.27229282 96.88014101 22.84926688 96.62939453 31.44628906 C95.57181263 39.81397001 91.70862002 46.71115347 85.08642578 51.88378906 C77.49264344 56.92806477 69.64769177 57.75101458 60.71142578 57.94628906 C59.61427246 57.97899902 58.51711914 58.01170898 57.38671875 58.04541016 C54.01586224 58.13674949 50.64554974 58.20327055 47.27392578 58.25878906 C46.30503418 58.27538574 45.33614258 58.29198242 44.33789062 58.30908203 C37.31454104 58.40820929 30.29702233 58.35758433 23.27392578 58.25878906 C22.58165894 58.2501886 21.88939209 58.24158813 21.17614746 58.23272705 C16.49441021 58.17379305 11.81354205 58.09475246 7.13250732 57.99432373 C5.57599357 57.96262391 4.01938164 57.93538945 2.46270752 57.91290283 C-8.1804028 57.75054202 -17.18269391 57.19816489 -25.82763672 50.22753906 C-31.80072079 44.03322966 -34.0971936 36.99686441 -34.35107422 28.50878906 C-34.08792919 22.51764999 -33.25974999 18.11759325 -29.72607422 13.25878906 C-29.00419922 12.20691406 -28.28232422 11.15503906 -27.53857422 10.07128906 C-19.91923516 2.45195001 -10.55991469 0.01290334 0 0 Z " fill="#F6A649" transform="translate(182.72607421875,365.7412109375)"/>
<path d="M0 0 C1.04545486 -0.00503792 1.04545486 -0.00503792 2.11203003 -0.01017761 C4.39591295 -0.01960742 6.67972192 -0.02162671 8.96362305 -0.02270508 C10.56634042 -0.0259233 12.16905751 -0.02928779 13.77177429 -0.03279114 C17.12471192 -0.03876257 20.47762384 -0.0406331 23.83056641 -0.04003906 C28.10383259 -0.03993758 32.37693212 -0.05358447 36.65015888 -0.07081127 C39.95923096 -0.08198985 43.2682635 -0.08395648 46.57735252 -0.08342934 C48.15163942 -0.08460084 49.72592762 -0.08897542 51.30019569 -0.0967617 C64.4798817 -0.15584563 77.18802227 -0.04541475 87.4128418 9.33276367 C93.73638026 16.17723436 95.31880479 22.83657077 94.9753418 32.06713867 C94.15399652 40.15738969 90.70532832 45.71746388 84.6628418 51.14526367 C77.65183513 55.92173364 72.08213047 57.29227276 63.65649414 57.32226562 C62.85267303 57.32883682 62.04885193 57.33540802 61.22067261 57.34217834 C58.5633738 57.36186907 55.90613148 57.37356639 53.2487793 57.38354492 C51.88290113 57.38965821 51.88290113 57.38965821 50.48942947 57.395895 C45.66686481 57.41674077 40.84432845 57.43104725 36.02172852 57.44042969 C31.05882468 57.45147277 26.09637181 57.48585266 21.13362694 57.52560139 C17.30212616 57.55184372 13.47073144 57.56012841 9.63914871 57.56371117 C7.81084788 57.56855982 5.98255123 57.58012429 4.15433884 57.59874916 C-6.84684946 57.70383057 -16.42675519 57.7209201 -25.6496582 50.89526367 C-32.54709211 43.83742432 -34.85061137 37.0464917 -35.3371582 27.14526367 C-34.83692592 18.9664658 -30.949627 12.29548801 -24.9621582 6.83276367 C-17.43883617 0.84016084 -9.34431468 0.02846916 0 0 Z " fill="#F5A649" transform="translate(781.337158203125,365.854736328125)"/>
<path d="M0 0 C3.42000827 2.66738509 6.56182207 5.49007108 9.5 8.6875 C10.263125 9.409375 11.02625 10.13125 11.8125 10.875 C13.5 12.6875 13.5 12.6875 13.5 14.6875 C14.37048729 15.07148453 14.37048729 15.07148453 15.25856018 15.46322632 C17.7214062 16.80843199 19.37334625 18.30026769 21.36303711 20.27587891 C22.4795591 21.37810287 22.4795591 21.37810287 23.61863708 22.50259399 C24.41351028 23.2983786 25.20838348 24.09416321 26.02734375 24.9140625 C26.8532753 25.73570892 27.67920685 26.55735535 28.53016663 27.40390015 C30.27681255 29.14480347 32.02084391 30.88833333 33.76245117 32.63427734 C36.41523922 35.29021281 39.08102204 37.93258946 41.74804688 40.57421875 C43.44612382 42.27002132 45.14341505 43.96661108 46.83984375 45.6640625 C47.63269272 46.44770172 48.42554169 47.23134094 49.24241638 48.03872681 C56.77917923 55.6382922 61.80155869 62.58667998 62.875 73.5 C62.64807315 80.81839091 59.27751174 87.82841208 54.34375 93.15234375 C48.29006088 98.19280948 40.71382463 101.12860092 32.83203125 100.953125 C22.83439806 99.81436611 16.37670718 94.65001279 9.5 87.6875 C8.74589844 86.9759375 7.99179687 86.264375 7.21484375 85.53125 C5.5 83.6875 5.5 83.6875 5.5 81.6875 C4.93829102 81.4503125 4.37658203 81.213125 3.79785156 80.96875 C0.97417342 79.39430643 -0.97614842 77.47065455 -3.265625 75.1875 C-4.15507812 74.300625 -5.04453125 73.41375 -5.9609375 72.5 C-6.88132812 71.571875 -7.80171875 70.64375 -8.75 69.6875 C-9.68585938 68.759375 -10.62171875 67.83125 -11.5859375 66.875 C-12.91238281 65.5446875 -12.91238281 65.5446875 -14.265625 64.1875 C-15.07805664 63.3728125 -15.89048828 62.558125 -16.72753906 61.71875 C-18.5 59.6875 -18.5 59.6875 -18.5 57.6875 C-19.16 57.6875 -19.82 57.6875 -20.5 57.6875 C-20.5 57.0275 -20.5 56.3675 -20.5 55.6875 C-21.0775 55.460625 -21.655 55.23375 -22.25 55 C-25.08434736 53.3466307 -26.46762189 51.25786056 -28.5 48.6875 C-29.44875 47.924375 -30.3975 47.16125 -31.375 46.375 C-38.01016209 40.99967881 -42.68208146 33.8269379 -43.81640625 25.3125 C-44.2083161 17.22145797 -41.72498194 10.18754516 -36.75 3.8125 C-33.49065445 0.32327617 -29.90061933 -1.57131007 -25.5 -3.3125 C-24.448125 -3.76625 -23.39625 -4.22 -22.3125 -4.6875 C-14.22742199 -6.01292262 -6.78342748 -4.64396082 0 0 Z " fill="#F6A649" transform="translate(309.5,190.3125)"/>
<path d="M0 0 C5.50341719 5.96686285 9.14273158 12.82049404 8.91796875 21.13671875 C6.76725278 34.2289412 -3.23215505 42.61127054 -12.19921875 51.58984375 C-13.38231421 52.77937888 -14.56526452 53.96905839 -15.74807739 55.15887451 C-18.21735407 57.64006619 -20.69066778 60.11715134 -23.16650391 62.59179688 C-26.32601276 65.75110205 -29.47150639 68.92397522 -32.61367607 72.10051346 C-35.04845129 74.55759752 -37.49233567 77.00546506 -39.93881607 79.45088959 C-41.10215676 80.61657723 -42.26228663 81.78547905 -43.41900253 82.95774078 C-51.21646374 90.85019632 -58.45552987 98.03726575 -70.20703125 98.44921875 C-78.35993596 98.34176696 -85.39413506 94.82461494 -91.08203125 89.13671875 C-96.9993637 81.4113125 -98.18960715 73.66858403 -97.08203125 64.13671875 C-95.19144401 58.5628759 -92.18567198 53.38186433 -88.08203125 49.13671875 C-87.42203125 49.13671875 -86.76203125 49.13671875 -86.08203125 49.13671875 C-86.08203125 48.47671875 -86.08203125 47.81671875 -86.08203125 47.13671875 C-84.76171875 45.875 -84.76171875 45.875 -82.95703125 44.44921875 C-79.74386085 41.79542619 -77.07698605 38.9704416 -74.44140625 35.75 C-73.05575441 34.10553388 -71.68955803 32.56707188 -70.08203125 31.13671875 C-69.42203125 31.13671875 -68.76203125 31.13671875 -68.08203125 31.13671875 C-67.81390625 30.49734375 -67.54578125 29.85796875 -67.26953125 29.19921875 C-66.08203125 27.13671875 -66.08203125 27.13671875 -63.08203125 26.13671875 C-62.58703125 25.14671875 -62.58703125 25.14671875 -62.08203125 24.13671875 C-61.08203125 22.13671875 -61.08203125 22.13671875 -58.08203125 21.13671875 C-57.64890625 20.23953125 -57.64890625 20.23953125 -57.20703125 19.32421875 C-55.71489448 16.42284171 -53.63557422 15.17955313 -51.08203125 13.13671875 C-49.9350367 11.88570082 -48.81178843 10.61268836 -47.70703125 9.32421875 C-40.71995535 1.24024706 -34.59295236 -4.71730379 -24.01953125 -7.73828125 C-14.89004639 -8.12676997 -6.9768548 -6.2438269 0 0 Z " fill="#F5A649" transform="translate(750.08203125,192.86328125)"/>
<path d="M0 0 C0.70374756 0.00644531 1.40749512 0.01289062 2.13256836 0.01953125 C10.42035147 0.30843001 16.32525087 3.19094089 22.125 9.125 C29.34485123 18.51119923 29.84452636 28.68811951 29.74609375 40.09765625 C29.74624917 41.58255585 29.74774524 43.06745585 29.75050354 44.55235291 C29.75187886 47.64617107 29.73947538 50.73952076 29.71655273 53.83325195 C29.68814532 57.77251481 29.69092374 61.71100246 29.70364285 65.65032291 C29.71064067 68.71067271 29.70276473 71.77084743 29.69038582 74.83117485 C29.6859128 76.28264123 29.68549764 77.73412667 29.68945122 79.18559456 C29.70655916 90.98677753 28.96149647 101.73205755 20.25 110.5 C11.69636536 117.28859892 4.21319695 119.76057665 -6.75 118.5 C-14.42023837 115.90184908 -21.1218441 111.54832246 -25 104.3125 C-31.60065917 89.78291063 -28.91588073 70.27549682 -28.7277832 54.66918945 C-28.70082858 52.00492871 -28.68351638 49.34309519 -28.68481445 46.67895508 C-28.6817055 42.77865933 -28.6399156 38.88041202 -28.58984375 34.98046875 C-28.59580063 33.80518112 -28.60175751 32.62989349 -28.6078949 31.41899109 C-28.42615236 22.44600021 -26.2804381 13.93577253 -19.66734314 7.46086121 C-17.75093788 5.93824516 -15.88821753 4.69095572 -13.75 3.5 C-12.83734375 2.96503906 -11.9246875 2.43007812 -10.984375 1.87890625 C-7.24983257 0.28676437 -3.99709277 -0.03825427 0 0 Z " fill="#F6A648" transform="translate(511.75,127.5)"/>
<path d="M0 0 C0.66 0 1.32 0 2 0 C1.30366068 10.3717909 0.1934991 20.67565342 -1 31 C-1.33 31 -1.66 31 -2 31 C-2.33 43.54 -2.66 56.08 -3 69 C-3.33 69 -3.66 69 -4 69 C-5.3251609 45.98547088 -5.86074548 22.51544979 0 0 Z " fill="#FAAD51" transform="translate(308,437)"/>
<path d="M0 0 C0.81597656 0.144375 1.63195312 0.28875 2.47265625 0.4375 C14.31845758 2.29364297 26.03233014 2.20276255 38 2 C37.01 2.33 36.02 2.66 35 3 C35 3.66 35 4.32 35 5 C30.85440907 5.11727273 26.70925138 5.18760933 22.5625 5.25 C20.81549805 5.30027344 20.81549805 5.30027344 19.03320312 5.3515625 C11.752467 5.43359896 6.34234786 4.68231881 0 1 C0 0.67 0 0.34 0 0 Z " fill="#F89E3E" transform="translate(489,921)"/>
<path d="M0 0 C0.55558594 0.24105469 1.11117188 0.48210937 1.68359375 0.73046875 C0.71873047 1.49617188 0.71873047 1.49617188 -0.265625 2.27734375 C-7.93057272 8.4442917 -15.14976184 14.99678537 -22.31640625 21.73046875 C-22.97640625 21.40046875 -23.63640625 21.07046875 -24.31640625 20.73046875 C-5.61054355 -0.65282884 -5.61054355 -0.65282884 0 0 Z " fill="#FAA543" transform="translate(388.31640625,318.26953125)"/>
<path d="M0 0 C4.28806873 0.47645208 6.26647487 1.65902484 9 5 C9 5.66 9 6.32 9 7 C9.66 7 10.32 7 11 7 C11 7.66 11 8.32 11 9 C11.66 9 12.32 9 13 9 C15.6875 11.8125 15.6875 11.8125 18 15 C17.67 15.99 17.34 16.98 17 18 C14.33333333 15.33333333 11.66666667 12.66666667 9 10 C8.25234375 9.29359375 7.5046875 8.5871875 6.734375 7.859375 C5 6 5 6 5 4 C4.360625 3.71125 3.72125 3.4225 3.0625 3.125 C1 2 1 2 0 0 Z " fill="#F9A03D" transform="translate(652,333)"/>
<path d="M0 0 C2.0625 0.4375 2.0625 0.4375 4 1 C1.94047642 2.29662538 -0.12237057 3.58735727 -2.1875 4.875 C-2.76564453 5.23980469 -3.34378906 5.60460937 -3.93945312 5.98046875 C-7.19113021 8.00128502 -10.3212615 9.89447237 -14 11 C-14.99 10.67 -15.98 10.34 -17 10 C-16.34 10 -15.68 10 -15 10 C-15 9.34 -15 8.68 -15 8 C-14.00097656 7.50628906 -13.00195312 7.01257813 -11.97265625 6.50390625 C-10.6692186 5.85687605 -9.36583602 5.20973489 -8.0625 4.5625 C-7.40314453 4.23701172 -6.74378906 3.91152344 -6.06445312 3.57617188 C-2.81709965 2.10888654 -2.81709965 2.10888654 0 0 Z " fill="#FBA33E" transform="translate(473,578)"/>
<path d="M0 0 C2.56139016 3.84208524 3.20985157 7.47278786 4.1875 11.9375 C4.47270508 13.15469727 4.47270508 13.15469727 4.76367188 14.39648438 C4.93833984 15.18216797 5.11300781 15.96785156 5.29296875 16.77734375 C5.4530542 17.49140381 5.61313965 18.20546387 5.77807617 18.94116211 C6.02304943 21.21383485 5.67946622 22.83235338 5 25 C5 24.34 5 23.68 5 23 C4.34 23 3.68 23 3 23 C0.68822069 15.44818759 0.3876613 7.83483894 0 0 Z " fill="#F99E3B" transform="translate(308,521)"/>
<path d="M0 0 C0.66 0.33 1.32 0.66 2 1 C1.236875 1.721875 0.47375 2.44375 -0.3125 3.1875 C-2.73602465 5.72374673 -4.2360133 8.00889212 -6 11 C-8.71732455 14.17021197 -11.04096649 15.68032216 -15 17 C-14.1875 15.0625 -14.1875 15.0625 -13 13 C-12.01 12.67 -11.02 12.34 -10 12 C-9.67 11.34 -9.34 10.68 -9 10 C-8 8 -8 8 -5 7 C-4.29848848 5.6846659 -3.63474075 4.34882408 -3 3 C-1.375 1.25 -1.375 1.25 0 0 Z " fill="#F9AD51" transform="translate(697,207)"/>
<path d="M0 0 C2.34234267 0.93693707 3.72522277 1.58020146 5.125 3.71875 C6.20194057 6.52648792 6.1963943 8.75143928 6.125 11.75 C6.10695313 12.73484375 6.08890625 13.7196875 6.0703125 14.734375 C6.03550781 15.85585938 6.03550781 15.85585938 6 17 C5.34 16.67 4.68 16.34 4 16 C3.4375 13.671875 3.4375 13.671875 3 10.75 C2.415479 6.88798624 1.56932331 3.58328822 0 0 Z " fill="#FA9F3D" transform="translate(619,786)"/>
<path d="M0 0 C3 1 3 1 4.38671875 3.328125 C4.81597656 4.29234375 5.24523437 5.2565625 5.6875 6.25 C6.34298828 7.68085938 6.34298828 7.68085938 7.01171875 9.140625 C7.99265067 11.97873633 8.20075771 14.0266156 8 17 C4.9971541 15.49857705 4.67831443 13.25064488 3.4375 10.1875 C3.00308594 9.12917969 2.56867187 8.07085937 2.12109375 6.98046875 C1.24257955 4.64490661 0.52420798 2.43256061 0 0 Z " fill="#FAA13D" transform="translate(698,392)"/>
<path d="M0 0 C1.32 0.33 2.64 0.66 4 1 C0.37 4.63 -3.26 8.26 -7 12 C-7.66 11.67 -8.32 11.34 -9 11 C-7.90299157 7.7089747 -7.12380142 7.03976712 -4.5 4.9375 C-1.81893599 2.82278233 -1.81893599 2.82278233 0 0 Z " fill="#F8A33E" transform="translate(672,232)"/>
<path d="M0 0 C4.95364304 2.26452253 7.9822888 5.9941546 10 11 C9.6328125 13.25390625 9.6328125 13.25390625 9 15 C7.68325862 13.06537998 6.37174202 11.12720303 5.0625 9.1875 C4.33160156 8.10855469 3.60070312 7.02960938 2.84765625 5.91796875 C1 3 1 3 0 0 Z " fill="#F9A03D" transform="translate(682,366)"/>
<path d="M0 0 C1.75 0.125 1.75 0.125 4 1 C6.67354206 4.45987796 8.54694849 7.88302072 10 12 C6.28631113 10.76210371 5.22645819 9.14775123 3 6 C3 5.34 3 4.68 3 4 C2.34 4 1.68 4 1 4 C0.67 2.68 0.34 1.36 0 0 Z " fill="#FAA23E" transform="translate(423,571)"/>
<path d="M0 0 C0.515625 0.66 1.03125 1.32 1.5625 2 C4.61208585 5.75333644 7.7986681 9.37602035 11 13 C10.67 13.66 10.34 14.32 10 15 C0.52456201 7.6302149 0.52456201 7.6302149 -0.0625 3 C-0.041875 2.01 -0.02125 1.02 0 0 Z " fill="#FA9E3B" transform="translate(269,221)"/>
<path d="M0 0 C0.33 0 0.66 0 1 0 C0.53574151 5.68716647 -0.77465309 9.25684278 -4 14 C-4.99 14.33 -5.98 14.66 -7 15 C-5.63408831 11.45756548 -4.09068516 8.07372071 -2.375 4.6875 C-1.70597656 3.36298828 -1.70597656 3.36298828 -1.0234375 2.01171875 C-0.68570313 1.34785156 -0.34796875 0.68398438 0 0 Z " fill="#F9A33F" transform="translate(586,873)"/>
<path d="M0 0 C7.35174806 -0.55253221 12.511583 0.48935892 19 4 C19 4.33 19 4.66 19 5 C16.36 4.67 13.72 4.34 11 4 C11 3.34 11 2.68 11 2 C7.37 1.67 3.74 1.34 0 1 C0 0.67 0 0.34 0 0 Z " fill="#FA9D39" transform="translate(448,384)"/>
<path d="M0 0 C0.556875 0.721875 1.11375 1.44375 1.6875 2.1875 C3.97319636 5.06018175 3.97319636 5.06018175 6.6875 7.6875 C9 10 9 10 10 12 C6.1503925 11.78002243 5.00953999 11.00932799 2.1875 8.25 C-0.00549633 4.99183402 -0.55784577 3.79335122 0 0 Z " fill="#F9A13F" transform="translate(656,273)"/>
<path d="M0 0 C5.3074758 -0.50547389 7.82331859 0.77256437 12 4 C12.66 4.66 13.32 5.32 14 6 C13.67 6.99 13.34 7.98 13 9 C12.154375 8.236875 11.30875 7.47375 10.4375 6.6875 C7.17996332 3.9508582 3.96276872 2.50585211 0 1 C0 0.67 0 0.34 0 0 Z " fill="#FAA140" transform="translate(737,188)"/>
<path d="M0 0 C2.33965571 2.22723982 4.27099166 4.58956647 6.1875 7.1875 C6.71730469 7.90292969 7.24710937 8.61835938 7.79296875 9.35546875 C8.39044922 10.16951172 8.39044922 10.16951172 9 11 C6.75 10.875 6.75 10.875 4 10 C1.00173367 6.35345986 0 4.78447394 0 0 Z " fill="#FAA340" transform="translate(487,228)"/>
<path d="M0 0 C4.76560621 1.40164889 7.95882443 4.15411474 11 8 C11 8.66 11 9.32 11 10 C6.10327576 7.82367811 2.01052629 5.11770328 0 0 Z " fill="#F9A23F" transform="translate(594,463)"/>
<path d="M0 0 C4.98748002 0.4749981 8.06964437 1.89227695 12 5 C12.33 5.99 12.66 6.98 13 8 C8.27626146 6.37621488 4.05818166 3.89006982 0 1 C0 0.67 0 0.34 0 0 Z " fill="#FAA33F" transform="translate(614,305)"/>
<path d="M0 0 C2.34917898 2.15341406 3.82443004 4.21667937 5.25 7.0625 C5.60578125 7.75472656 5.9615625 8.44695313 6.328125 9.16015625 C6.54984375 9.76730469 6.7715625 10.37445312 7 11 C6.67 11.66 6.34 12.32 6 13 C3.01947605 10.44526518 1.53659812 7.58539561 0 4 C0 2.68 0 1.36 0 0 Z " fill="#F9A23E" transform="translate(377,653)"/>
<path d="M0 0 C0.99 0.33 1.98 0.66 3 1 C3.16986545 2.56215548 3.33573964 4.1247452 3.5 5.6875 C3.5928125 6.55761719 3.685625 7.42773438 3.78125 8.32421875 C3.99159864 10.89723339 4.03719144 13.41984364 4 16 C1.11388804 11.0523795 0 5.66834163 0 0 Z " fill="#F9AD53" transform="translate(395,700)"/>
<path d="M0 0 C-0.99 1.485 -0.99 1.485 -2 3 C-4.64 2.67 -7.28 2.34 -10 2 C-10 2.66 -10 3.32 -10 4 C-12.64 3.67 -15.28 3.34 -18 3 C-18 2.67 -18 2.34 -18 2 C-16.12612523 1.6603981 -14.25083303 1.32861309 -12.375 1 C-11.33085937 0.814375 -10.28671875 0.62875 -9.2109375 0.4375 C-6.09425135 0.01284203 -3.14069188 -0.07545206 0 0 Z " fill="#FBB459" transform="translate(488,278)"/>
<path d="M0 0 C1.79068573 2.6860286 2.66055791 4.6626589 3.625 7.6875 C3.88539063 8.49574219 4.14578125 9.30398438 4.4140625 10.13671875 C4.60742188 10.75160156 4.80078125 11.36648438 5 12 C2 11 2 11 0.8125 9.375 C-0.27499354 6.19617272 -0.1282071 3.33338467 0 0 Z " fill="#F9A03E" transform="translate(401,718)"/>
<path d="M0 0 C1 3 1 3 0.07421875 5.04296875 C-0.61220703 6.10451172 -0.61220703 6.10451172 -1.3125 7.1875 C-1.76238281 7.90292969 -2.21226562 8.61835937 -2.67578125 9.35546875 C-3.11277344 9.89816406 -3.54976562 10.44085937 -4 11 C-4.66 11 -5.32 11 -6 11 C-4.54955729 6.89041233 -2.48889248 3.56741255 0 0 Z " fill="#FBA33F" transform="translate(689,589)"/>
<path d="M0 0 C0 0.99 0 1.98 0 3 C-1.53125 4.38671875 -1.53125 4.38671875 -3.5 5.6875 C-4.47453125 6.34298828 -4.47453125 6.34298828 -5.46875 7.01171875 C-5.9740625 7.33785156 -6.479375 7.66398437 -7 8 C-7.66 7.67 -8.32 7.34 -9 7 C-6.19195732 4.03595495 -3.81684226 1.55500981 0 0 Z " fill="#FBA23D" transform="translate(603,502)"/>
<path d="M0 0 C3.36591866 1.44253657 5.51047079 3.33264727 8 6 C7.67 6.66 7.34 7.32 7 8 C1.21538462 4.55384615 1.21538462 4.55384615 0.125 1.75 C0.08375 1.1725 0.0425 0.595 0 0 Z " fill="#F8A13F" transform="translate(310,266)"/>
<path d="M0 0 C2.51699845 2.51699845 3.10964078 4.57554146 4 8 C3.625 10.375 3.625 10.375 3 12 C3 11.34 3 10.68 3 10 C2.34 10 1.68 10 1 10 C0.67 6.7 0.34 3.4 0 0 Z " fill="#F99F3C" transform="translate(393,690)"/>
<path d="M0 0 C-1.28524261 0.86380259 -2.57842419 1.71580369 -3.875 2.5625 C-4.59429688 3.03816406 -5.31359375 3.51382813 -6.0546875 4.00390625 C-6.69664062 4.33261719 -7.33859375 4.66132812 -8 5 C-8.66 4.67 -9.32 4.34 -10 4 C-4.75 -1.425 -4.75 -1.425 0 0 Z " fill="#F9A13C" transform="translate(568,526)"/>
<path d="M0 0 C1.48285242 0.95262034 2.96118201 1.91228405 4.4375 2.875 C5.67306641 3.67550781 5.67306641 3.67550781 6.93359375 4.4921875 C9 6 9 6 10 8 C7.8125 8.375 7.8125 8.375 5 8 C2.91167347 6.17130326 1.61663209 4.30947441 0 2 C0 1.34 0 0.68 0 0 Z " fill="#FAA03C" transform="translate(754,411)"/>
<path d="M0 0 C0.99 0.33 1.98 0.66 3 1 C0.36 3.64 -2.28 6.28 -5 9 C-5.66 8.67 -6.32 8.34 -7 8 C-4.69 5.36 -2.38 2.72 0 0 Z " fill="#F99A32" transform="translate(371,331)"/>
<path d="M0 0 C0.8971875 0.309375 0.8971875 0.309375 1.8125 0.625 C0.52725739 1.48880259 -0.76592419 2.34080369 -2.0625 3.1875 C-2.78179687 3.66316406 -3.50109375 4.13882813 -4.2421875 4.62890625 C-4.88414062 4.95761719 -5.52609375 5.28632812 -6.1875 5.625 C-6.8475 5.295 -7.5075 4.965 -8.1875 4.625 C-3.2421875 -0.55580357 -3.2421875 -0.55580357 0 0 Z " fill="#FAA23F" transform="translate(487.1875,571.375)"/>
<path d="M0 0 C0.33 0.99 0.66 1.98 1 3 C1.66 3 2.32 3 3 3 C3 7.29 3 11.58 3 16 C2.67 16 2.34 16 2 16 C0.80911014 10.61972975 -0.2919519 5.54708616 0 0 Z " fill="#F7B05A" transform="translate(306,516)"/>
<path d="M0 0 C-2.64 1.65 -5.28 3.3 -8 5 C-8.33 4.01 -8.66 3.02 -9 2 C-4.5 -1.125 -4.5 -1.125 0 0 Z " fill="#FAA340" transform="translate(418,301)"/>
<path d="M0 0 C3.95820859 0.56545837 6.6659053 1.80902348 10 4 C7 5 7 5 3.875 3.6875 C1 2 1 2 0 0 Z " fill="#FAA13E" transform="translate(434,584)"/>
<path d="M0 0 C3.59391114 1.33488128 6.75490696 2.96022723 10 5 C8.3125 5.6875 8.3125 5.6875 6 6 C3.3125 4.75 3.3125 4.75 1 3 C0.67 2.01 0.34 1.02 0 0 Z " fill="#FAA13C" transform="translate(566,447)"/>
<path d="M0 0 C4.29 0.33 8.58 0.66 13 1 C13 1.33 13 1.66 13 2 C9.37 2.33 5.74 2.66 2 3 C2 2.34 2 1.68 2 1 C1.34 0.67 0.68 0.34 0 0 Z " fill="#FCB053" transform="translate(534,278)"/>
<path d="M0 0 C0.33 0 0.66 0 1 0 C1.36923077 7.50769231 1.36923077 7.50769231 -0.5 10 C-0.995 10.33 -1.49 10.66 -2 11 C-1.125 3.375 -1.125 3.375 0 0 Z " fill="#F99D38" transform="translate(628,695)"/>
<path d="M0 0 C0 3 0 3 -2.5 5.6875 C-3.325 6.450625 -4.15 7.21375 -5 8 C-5.66 7.67 -6.32 7.34 -7 7 C-5.12050295 3.42895561 -3.82946843 1.45255699 0 0 Z " fill="#F89F3A" transform="translate(684,222)"/>
<path d="M0 0 C4.83256305 0.41421969 6.82679218 2.46413986 10 6 C6.5625 5.1875 6.5625 5.1875 3 4 C2.67 3.01 2.34 2.02 2 1 C1.34 0.67 0.68 0.34 0 0 Z " fill="#F7AD54" transform="translate(522,130)"/>
<path d="M0 0 C2.48046875 0.6796875 2.48046875 0.6796875 5.1875 1.875 C6.08855469 2.26429688 6.98960937 2.65359375 7.91796875 3.0546875 C8.94857422 3.52261719 8.94857422 3.52261719 10 4 C6.44757118 5.18414294 5.30169438 4.69535532 1.8125 3.5625 C0.91144531 3.27503906 0.01039063 2.98757813 -0.91796875 2.69140625 C-1.60503906 2.46324219 -2.29210937 2.23507812 -3 2 C-2.01 1.34 -1.02 0.68 0 0 Z " fill="#F7B057" transform="translate(487,920)"/>
<path d="M0 0 C5.53846154 -0.36923077 5.53846154 -0.36923077 7.875 1.5 C8.24625 1.995 8.6175 2.49 9 3 C5.71023192 4.09658936 4.28696233 3.79953138 1 3 C0.67 2.01 0.34 1.02 0 0 Z " fill="#F8AD52" transform="translate(475,917)"/>
<path d="M0 0 C0.33 0.99 0.66 1.98 1 3 C-0.32 4.32 -1.64 5.64 -3 7 C-3.99 6.67 -4.98 6.34 -6 6 C-4.02 4.02 -2.04 2.04 0 0 Z " fill="#F89D3B" transform="translate(620,813)"/>
<path d="M0 0 C0.99 0.33 1.98 0.66 3 1 C3.625 3.3125 3.625 3.3125 4 6 C3.01 7.485 3.01 7.485 2 9 C1.34 6.03 0.68 3.06 0 0 Z " fill="#F9AB51" transform="translate(390,684)"/>
<path d="M0 0 C1.485 0.99 1.485 0.99 3 2 C3.40843923 4.71203652 3.13336867 7.2437142 3 10 C0.70366176 6.55549263 0.45983515 4.06187717 0 0 Z " fill="#F8A03B" transform="translate(712,428)"/>
<path d="M0 0 C3.36591866 1.44253657 5.51047079 3.33264727 8 6 C7.67 6.66 7.34 7.32 7 8 C3.70851757 6.86500606 3.0040131 6.00716624 1.25 2.875 C0.8375 1.92625 0.425 0.9775 0 0 Z " fill="#F99B34" transform="translate(286,242)"/>
<path d="M0 0 C0.66 0 1.32 0 2 0 C3.7143618 1.95927063 5.38405168 3.95880212 7 6 C4.625 5.8125 4.625 5.8125 2 5 C0.6875 2.4375 0.6875 2.4375 0 0 Z " fill="#F7A03F" transform="translate(457,902)"/>
<path d="M0 0 C1.60031344 3.20062687 0.03173691 5.72271806 -1 9 C-1.66 8.34 -2.32 7.68 -3 7 C-2.75 3.9375 -2.75 3.9375 -2 1 C-1.34 0.67 -0.68 0.34 0 0 Z " fill="#FAA23E" transform="translate(402,788)"/>
<path d="M0 0 C1 4 1 4 1 4 Z " fill="#E6A558" transform="translate(264,210)"/>
<path d="M0 0 C3 1 3 1 3 1 Z " fill="#F7AE50" transform="translate(472,576)"/>
<path d="M0 0 C3 1 3 1 3 1 Z " fill="#F8B053" transform="translate(568,520)"/>
<path d="M0 0 C3 1 3 1 3 1 Z " fill="#F7AB50" transform="translate(557,280)"/>
<path d="M0 0 C2 1 2 1 2 1 Z " fill="#F2A94E" transform="translate(507,927)"/>
<path d="" fill="#EFA850" transform="translate(0,0)"/>
<path d="" fill="#F2A953" transform="translate(0,0)"/>
<path d="" fill="#F5A94F" transform="translate(0,0)"/>
<path d="" fill="#F3A850" transform="translate(0,0)"/>
<path d="" fill="#F8AD51" transform="translate(0,0)"/>
<path d="" fill="#F7AC50" transform="translate(0,0)"/>
<path d="M0 0 C2 1 2 1 2 1 Z " fill="#F7AE54" transform="translate(438,391)"/>
<path d="M0 0 C2 1 2 1 2 1 Z " fill="#F2A950" transform="translate(760,368)"/>
<path d="M0 0 C2 1 2 1 2 1 Z " fill="#F9AE53" transform="translate(507,247)"/>
<path d="M0 0 C2 1 2 1 2 1 Z " fill="#E7A451" transform="translate(284,185)"/>
<path d="" fill="#836D4E" transform="translate(0,0)"/>
<path d="" fill="#EFA651" transform="translate(0,0)"/>
<path d="" fill="#F1A64D" transform="translate(0,0)"/>
<path d="" fill="#EEA64C" transform="translate(0,0)"/>
<path d="" fill="#F2A74D" transform="translate(0,0)"/>
<path d="" fill="#EFA750" transform="translate(0,0)"/>
<path d="" fill="#EEA651" transform="translate(0,0)"/>
<path d="" fill="#F0A851" transform="translate(0,0)"/>
<path d="" fill="#EEA64E" transform="translate(0,0)"/>
<path d="" fill="#EFA64D" transform="translate(0,0)"/>
<path d="" fill="#F1A752" transform="translate(0,0)"/>
<path d="" fill="#EDA753" transform="translate(0,0)"/>
<path d="" fill="#EFA950" transform="translate(0,0)"/>
<path d="" fill="#EFA852" transform="translate(0,0)"/>
<path d="" fill="#F3AB52" transform="translate(0,0)"/>
<path d="" fill="#FAAE53" transform="translate(0,0)"/>
<path d="" fill="#F6AC50" transform="translate(0,0)"/>
<path d="" fill="#F8AC54" transform="translate(0,0)"/>
<path d="" fill="#F6AB52" transform="translate(0,0)"/>
<path d="" fill="#F6AC51" transform="translate(0,0)"/>
<path d="" fill="#F5AC52" transform="translate(0,0)"/>
<path d="" fill="#F5AB50" transform="translate(0,0)"/>
<path d="" fill="#F8AC54" transform="translate(0,0)"/>
<path d="" fill="#F5AD52" transform="translate(0,0)"/>
<path d="" fill="#F5AC51" transform="translate(0,0)"/>
<path d="" fill="#F5A950" transform="translate(0,0)"/>
<path d="" fill="#F3AC52" transform="translate(0,0)"/>
<path d="" fill="#F4A94F" transform="translate(0,0)"/>
<path d="" fill="#F3A84F" transform="translate(0,0)"/>
<path d="" fill="#FBAC51" transform="translate(0,0)"/>
<path d="" fill="#F1AA51" transform="translate(0,0)"/>
<path d="" fill="#FAAD51" transform="translate(0,0)"/>
<path d="" fill="#F9AE53" transform="translate(0,0)"/>
<path d="" fill="#F4AB52" transform="translate(0,0)"/>
<path d="" fill="#F8AF53" transform="translate(0,0)"/>
<path d="" fill="#FAAC4B" transform="translate(0,0)"/>
<path d="" fill="#F9AB4E" transform="translate(0,0)"/>
<path d="" fill="#F0A852" transform="translate(0,0)"/>
<path d="" fill="#F0A64F" transform="translate(0,0)"/>
<path d="" fill="#F2A74F" transform="translate(0,0)"/>
<path d="" fill="#F2A951" transform="translate(0,0)"/>
<path d="" fill="#F3AA4F" transform="translate(0,0)"/>
<path d="" fill="#F1A951" transform="translate(0,0)"/>
<path d="" fill="#F8AC53" transform="translate(0,0)"/>
<path d="" fill="#F8AA4E" transform="translate(0,0)"/>
<path d="" fill="#F8AD51" transform="translate(0,0)"/>
<path d="" fill="#FAAE52" transform="translate(0,0)"/>
<path d="" fill="#F8AC51" transform="translate(0,0)"/>
<path d="" fill="#F6AC53" transform="translate(0,0)"/>
<path d="" fill="#F5AB52" transform="translate(0,0)"/>
<path d="" fill="#F9AE51" transform="translate(0,0)"/>
<path d="" fill="#FAAC51" transform="translate(0,0)"/>
<path d="" fill="#F9AE50" transform="translate(0,0)"/>
<path d="" fill="#ECA955" transform="translate(0,0)"/>
<path d="" fill="#F4AA52" transform="translate(0,0)"/>
<path d="" fill="#F3AB53" transform="translate(0,0)"/>
<path d="" fill="#ECA552" transform="translate(0,0)"/>
<path d="" fill="#F5AF54" transform="translate(0,0)"/>
<path d="" fill="#EBA852" transform="translate(0,0)"/>
<path d="" fill="#FCAF53" transform="translate(0,0)"/>
<path d="" fill="#EAA654" transform="translate(0,0)"/>
<path d="" fill="#F4A84D" transform="translate(0,0)"/>
<path d="" fill="#F4A956" transform="translate(0,0)"/>
<path d="" fill="#E6A251" transform="translate(0,0)"/>
<path d="" fill="#E7A555" transform="translate(0,0)"/>
<path d="" fill="#F6AD55" transform="translate(0,0)"/>
<path d="" fill="#F9AD52" transform="translate(0,0)"/>
<path d="" fill="#E8A456" transform="translate(0,0)"/>
<path d="" fill="#E4A555" transform="translate(0,0)"/>
<path d="" fill="#F8AE53" transform="translate(0,0)"/>
<path d="" fill="#F7AE54" transform="translate(0,0)"/>
<path d="" fill="#F5AC54" transform="translate(0,0)"/>
<path d="" fill="#E6A451" transform="translate(0,0)"/>
<path d="" fill="#F4AC56" transform="translate(0,0)"/>
<path d="" fill="#EDA854" transform="translate(0,0)"/>
<path d="" fill="#F8AC51" transform="translate(0,0)"/>
<path d="" fill="#FCAF50" transform="translate(0,0)"/>
<path d="" fill="#F8AC52" transform="translate(0,0)"/>
<path d="" fill="#FAAD4E" transform="translate(0,0)"/>
<path d="" fill="#F8AE56" transform="translate(0,0)"/>
<path d="" fill="#F9B055" transform="translate(0,0)"/>
<path d="" fill="#F9AC4D" transform="translate(0,0)"/>
<path d="" fill="#F6AC55" transform="translate(0,0)"/>
<path d="" fill="#F7AC53" transform="translate(0,0)"/>
<path d="" fill="#F5A853" transform="translate(0,0)"/>
<path d="" fill="#F7AB53" transform="translate(0,0)"/>
<path d="" fill="#F3AA56" transform="translate(0,0)"/>
<path d="" fill="#F3AA55" transform="translate(0,0)"/>
<path d="" fill="#FBAC51" transform="translate(0,0)"/>
<path d="" fill="#F7AF53" transform="translate(0,0)"/>
<path d="" fill="#F3AA57" transform="translate(0,0)"/>
<path d="" fill="#F2AA52" transform="translate(0,0)"/>
<path d="" fill="#F8AD53" transform="translate(0,0)"/>
<path d="" fill="#F5AB53" transform="translate(0,0)"/>
<path d="" fill="#F5A750" transform="translate(0,0)"/>
<path d="" fill="#EFA554" transform="translate(0,0)"/>
<path d="" fill="#F6AC51" transform="translate(0,0)"/>
<path d="" fill="#F8AD52" transform="translate(0,0)"/>
<path d="" fill="#F5AD55" transform="translate(0,0)"/>
<path d="" fill="#F6AC51" transform="translate(0,0)"/>
<path d="" fill="#E7A858" transform="translate(0,0)"/>
<path d="" fill="#F5AE50" transform="translate(0,0)"/>
<path d="" fill="#F2AD57" transform="translate(0,0)"/>
<path d="" fill="#E8A755" transform="translate(0,0)"/>
<path d="" fill="#E8A656" transform="translate(0,0)"/>
<path d="" fill="#E8A552" transform="translate(0,0)"/>
<path d="" fill="#E7A554" transform="translate(0,0)"/>
<path d="" fill="#E7A556" transform="translate(0,0)"/>
<path d="" fill="#E8A555" transform="translate(0,0)"/>
<path d="" fill="#E8A451" transform="translate(0,0)"/>
<path d="" fill="#F4A84D" transform="translate(0,0)"/>
<path d="" fill="#F5A94E" transform="translate(0,0)"/>
<path d="" fill="#F4A84D" transform="translate(0,0)"/>
<path d="" fill="#F2AC50" transform="translate(0,0)"/>
<path d="" fill="#EFA851" transform="translate(0,0)"/>
<path d="" fill="#EDA851" transform="translate(0,0)"/>
<path d="" fill="#EDA54F" transform="translate(0,0)"/>
</svg>
